<svg width="1400" height="820" viewBox="0 0 1400 820" fill="none" xmlns="http://www.w3.org/2000/svg">
  <rect width="1400" height="820" rx="32" fill="#020617"/>
  <rect x="56" y="56" width="1288" height="708" rx="28" fill="#0F172A" stroke="#1E293B" stroke-width="2"/>
  <text x="88" y="118" fill="#BFDBFE" font-family="monospace" font-size="24" letter-spacing="3">NAICS STARTUP PLANNING SYSTEM</text>
  <text x="88" y="154" fill="#94A3B8" font-family="monospace" font-size="15">Industry data + rules engine + explainable launch planning.</text>

  <rect x="92" y="214" width="252" height="148" rx="22" fill="#111827" stroke="#334155"/>
  <text x="124" y="258" fill="#F8FAFC" font-family="monospace" font-size="20">NAICS Dataset</text>
  <text x="124" y="294" fill="#94A3B8" font-family="monospace" font-size="14">2022 hierarchy</text>
  <text x="124" y="322" fill="#94A3B8" font-family="monospace" font-size="14">provenance + validation</text>

  <rect x="444" y="184" width="336" height="200" rx="24" fill="#172554" stroke="#38BDF8" stroke-width="2"/>
  <text x="482" y="238" fill="#E0F2FE" font-family="monospace" font-size="24">Planning Engine</text>
  <text x="482" y="280" fill="#BAE6FD" font-family="monospace" font-size="15">- role / coverage model</text>
  <text x="482" y="312" fill="#BAE6FD" font-family="monospace" font-size="15">- income and capacity rules</text>
  <text x="482" y="342" fill="#BAE6FD" font-family="monospace" font-size="15">
    <tspan x="482" dy="0">- startup procedure</tspan>
    <tspan x="482" dy="20">  ordering</tspan>
  </text>

  <rect x="880" y="214" width="224" height="138" rx="22" fill="#1E1B4B" stroke="#8B5CF6" stroke-width="2"/>
  <text x="914" y="262" fill="#EDE9FE" font-family="monospace" font-size="18">Explainability</text>
  <text x="914" y="296" fill="#DDD6FE" font-family="monospace" font-size="14">rules fired</text>
  <text x="914" y="322" fill="#DDD6FE" font-family="monospace" font-size="14">
    <tspan x="914" dy="0">confidence</tspan>
    <tspan x="914" dy="18">+ rationale</tspan>
  </text>

  <rect x="162" y="490" width="300" height="184" rx="24" fill="#1E293B" stroke="#60A5FA" stroke-width="2"/>
  <text x="196" y="536" fill="#DBEAFE" font-family="monospace" font-size="20">Founder Inputs</text>
  <text x="196" y="572" fill="#BFDBFE" font-family="monospace" font-size="14">team shape</text>
  <text x="196" y="600" fill="#BFDBFE" font-family="monospace" font-size="14">entity preferences</text>
  <text x="196" y="628" fill="#BFDBFE" font-family="monospace" font-size="14">
    <tspan x="196" dy="0">resume intake</tspan>
    <tspan x="196" dy="18">/ skills</tspan>
  </text>

  <rect x="548" y="490" width="316" height="184" rx="24" fill="#052E16" stroke="#10B981" stroke-width="2"/>
  <text x="584" y="536" fill="#D1FAE5" font-family="monospace" font-size="20">Launch Plan Output</text>
  <text x="584" y="572" fill="#A7F3D0" font-family="monospace" font-size="14">roles + coverage paths</text>
  <text x="584" y="600" fill="#A7F3D0" font-family="monospace" font-size="14">growth roadmap</text>
  <text x="584" y="628" fill="#A7F3D0" font-family="monospace" font-size="14">procedures + exports</text>

  <rect x="948" y="490" width="254" height="172" rx="24" fill="#111827" stroke="#334155"/>
  <text x="980" y="540" fill="#F8FAFC" font-family="monospace" font-size="20">Offline Runtime</text>
  <text x="980" y="578" fill="#94A3B8" font-family="monospace" font-size="15">local DB</text>
  <text x="980" y="604" fill="#94A3B8" font-family="monospace" font-size="14">
    <tspan x="980" dy="0">no paid APIs</tspan>
    <tspan x="980" dy="18">required</tspan>
  </text>
  <text x="980" y="644" fill="#94A3B8" font-family="monospace" font-size="14">snapshot-tested logic</text>

  <path d="M344 283H444" stroke="#64748B" stroke-width="3"/>
  <path d="M780 283H880" stroke="#64748B" stroke-width="3"/>
  <path d="M312 490V426H596V384" stroke="#64748B" stroke-width="3"/>
  <path d="M706 384V490" stroke="#64748B" stroke-width="3"/>
  <path d="M864 576H948" stroke="#64748B" stroke-width="3"/>

  <path d="M428 277L444 283L428 289" fill="#64748B"/>
  <path d="M864 277L880 283L864 289" fill="#64748B"/>
  <path d="M590 400L596 384L602 400" fill="#64748B"/>
  <path d="M700 474L706 490L712 474" fill="#64748B"/>
  <path d="M932 570L948 576L932 582" fill="#64748B"/>
</svg>
