<svg width="1400" height="820" viewBox="0 0 1400 820" fill="none" xmlns="http://www.w3.org/2000/svg">
  <rect width="1400" height="820" rx="32" fill="#020617"/>
  <rect x="56" y="56" width="1288" height="708" rx="28" fill="#0F172A" stroke="#1E293B" stroke-width="2"/>
  <text x="88" y="118" fill="#BFDBFE" font-family="monospace" font-size="24" letter-spacing="3">ROBORECEPTIONIST / SAFE LEGAL INTAKE</text>
  <text x="88" y="154" fill="#94A3B8" font-family="monospace" font-size="15">Policy before response. Validation before delivery.</text>

  <rect x="88" y="212" width="244" height="132" rx="20" fill="#111827" stroke="#334155"/>
  <text x="118" y="254" fill="#F8FAFC" font-family="monospace" font-size="20">Caller Session</text>
  <text x="118" y="288" fill="#94A3B8" font-family="monospace" font-size="14">chat input</text>
  <text x="118" y="316" fill="#94A3B8" font-family="monospace" font-size="14">conflict details</text>

  <rect x="420" y="188" width="300" height="202" rx="24" fill="#1E293B" stroke="#60A5FA" stroke-width="2"/>
  <text x="454" y="230" fill="#DBEAFE" font-family="monospace" font-size="20">
    <tspan x="454" dy="0">Layer 1</tspan>
    <tspan x="454" dy="28">Policy Engine</tspan>
  </text>
  <text x="454" y="296" fill="#BFDBFE" font-family="monospace" font-size="14">- jurisdiction gate</text>
  <text x="454" y="324" fill="#BFDBFE" font-family="monospace" font-size="14">
    <tspan x="454" dy="0">- emergency / urgency</tspan>
    <tspan x="454" dy="20">  checks</tspan>
  </text>
  <text x="454" y="366" fill="#BFDBFE" font-family="monospace" font-size="14">- conflict check ordering</text>

  <rect x="808" y="188" width="288" height="202" rx="24" fill="#1E1B4B" stroke="#8B5CF6" stroke-width="2"/>
  <text x="840" y="230" fill="#EDE9FE" font-family="monospace" font-size="20">
    <tspan x="840" dy="0">Layer 2</tspan>
    <tspan x="840" dy="28">AI Flow</tspan>
  </text>
  <text x="840" y="296" fill="#DDD6FE" font-family="monospace" font-size="14">
    <tspan x="840" dy="0">- conversational</tspan>
    <tspan x="840" dy="20">  response</tspan>
  </text>
  <text x="840" y="340" fill="#DDD6FE" font-family="monospace" font-size="14">- validated output only</text>
  <text x="840" y="366" fill="#DDD6FE" font-family="monospace" font-size="14">
    <tspan x="840" dy="0">- no legal advice</tspan>
    <tspan x="840" dy="20">  boundary</tspan>
  </text>

  <rect x="230" y="482" width="324" height="188" rx="24" fill="#111827" stroke="#334155"/>
  <text x="266" y="528" fill="#F8FAFC" font-family="monospace" font-size="20">Transcript Storage</text>
  <text x="266" y="566" fill="#94A3B8" font-family="monospace" font-size="14">session state</text>
  <text x="266" y="596" fill="#94A3B8" font-family="monospace" font-size="14">
    <tspan x="266" dy="0">turn-by-turn</tspan>
    <tspan x="266" dy="18">transcript</tspan>
  </text>
  <text x="266" y="640" fill="#94A3B8" font-family="monospace" font-size="14">audit trail</text>

  <rect x="660" y="482" width="286" height="198" rx="24" fill="#052E16" stroke="#10B981" stroke-width="2"/>
  <text x="696" y="524" fill="#D1FAE5" font-family="monospace" font-size="20">
    <tspan x="696" dy="0">Notification</tspan>
    <tspan x="696" dy="28">Layer</tspan>
  </text>
  <text x="696" y="590" fill="#A7F3D0" font-family="monospace" font-size="14">same-day callback flag</text>
  <text x="696" y="618" fill="#A7F3D0" font-family="monospace" font-size="14">intake summary email</text>
  <text x="696" y="646" fill="#A7F3D0" font-family="monospace" font-size="14">specialist handoff</text>

  <rect x="1034" y="482" width="216" height="188" rx="24" fill="#172554" stroke="#38BDF8" stroke-width="2"/>
  <text x="1070" y="526" fill="#E0F2FE" font-family="monospace" font-size="20">
    <tspan x="1070" dy="0">Human</tspan>
    <tspan x="1070" dy="26">Review</tspan>
  </text>
  <text x="1070" y="582" fill="#BAE6FD" font-family="monospace" font-size="14">triage</text>
  <text x="1070" y="610" fill="#BAE6FD" font-family="monospace" font-size="14">callback</text>
  <text x="1070" y="638" fill="#BAE6FD" font-family="monospace" font-size="14">matter routing</text>

  <path d="M332 278H420" stroke="#64748B" stroke-width="3"/>
  <path d="M720 278H808" stroke="#64748B" stroke-width="3"/>
  <path d="M952 390V430H820V482" stroke="#64748B" stroke-width="3"/>
  <path d="M570 390V430H392V482" stroke="#64748B" stroke-width="3"/>
  <path d="M946 572H1034" stroke="#64748B" stroke-width="3"/>

  <path d="M404 272L420 278L404 284" fill="#64748B"/>
  <path d="M792 272L808 278L792 284" fill="#64748B"/>
  <path d="M814 466L820 482L826 466" fill="#64748B"/>
  <path d="M386 466L392 482L398 466" fill="#64748B"/>
  <path d="M1018 566L1034 572L1018 578" fill="#64748B"/>
</svg>
